<?xml version="1.0" encoding="utf-8"?>
<!-- Generator: Adobe Illustrator 28.0.0, SVG Export Plug-In . SVG Version: 6.00 Build 0)  -->
<svg version="1.1" id="Capa_1" xmlns="http://www.w3.org/2000/svg" xmlns:xlink="http://www.w3.org/1999/xlink" x="0px" y="0px"
	 viewBox="0 0 430 126.6" style="enable-background:new 0 0 430 126.6;" xml:space="preserve">
<style type="text/css">
	.st0{fill:#4F5A60;}
	.st1{fill:#16C1CE;}
</style>
<g>
	<path class="st0" d="M340.2,54.6c-9.4,0-18.9,0-28.3,0c-2.2,0-3.2,1.1-3.3,3.2c0,2.6,0.1,5.2,0.1,7.8c-0.1,2.3,0.8,3.3,3.3,3.3
		c4.5-0.1,9.1,0,13.6-0.1c1.7,0,2.2,0.5,2.1,2.2c-0.2,3.7-0.1,7.4-0.1,11.1c0,1.1-0.2,1.8-1.4,2.3c-3.7,1.6-7,3-11.1,3.4
		c-5.7,0.5-11.2,0.5-16.7-1.7c-4.9-2-8.6-5.3-11.2-9.4c-3.8-5.9-5-12.8-4.2-19.9c1-10,5-18.2,14.4-23.1c8.9-4.6,23.5-3.2,30.4,6.7
		c0.9,1.2,1.8,1.4,3.5,0.6c2.8-1.5,5.1-3.7,8.1-5c2.3-1,2.6-2.7,1.2-4.7c-2.2-3.1-4.5-6-7.9-8c-4.7-2.8-9.5-5.5-14.9-6.7
		c-5.1-1.1-10.2-1.5-15.8-0.4c-3.6,0.7-7,1.5-10.4,2.8c-8.9,3.4-15.6,9.7-20.3,17.9c-7.3,12.8-8.3,26.3-2.9,40.3
		c4.4,11.4,12.7,18.8,23.5,23.3c11.4,4.7,23.1,3.6,34.7-0.1c0.4-0.1,7.4-2.9,11-5.4c4.5-2.8,5.7-3.7,5.7-8.4c0-4.3,0-8.5,0-12.8
		c0-5.2,0-10.4,0-15.5C343.6,55.6,342.5,54.6,340.2,54.6z"/>
	<path class="st0" d="M380.6,37.4c-14.4,1.2-28,13.3-28.2,32.4c-0.2,18.1,14.5,32.6,31.5,33.2c18,0.6,33.9-15.7,33.4-33.8
		C417.4,50.2,401.5,35.7,380.6,37.4z M391.2,50.2c2.3-1.4,3.8-0.9,5,1.6c0.9,1.8,1.2,3.7,1.2,5.7c0,3.4-0.7,6.5-3.8,8.3
		c-2.7,1.6-4.8,1.1-6-1.8C385.7,59.7,386,53.3,391.2,50.2z M371.3,54.1c0.9-3,3.3-4,6-2.4c4.5,2.7,6.2,7.4,4.4,12.4
		c-1.4,4.1-3.7,4.3-7,1.6c-2.6-2-4.1-4.1-3.8-7.4C370.7,56.9,370.9,55.5,371.3,54.1z M363.7,67.5c0.5-1.9,3.2-2.8,5.7-1.9
		c4,1.4,6.5,6.8,5.3,11c-0.5,1.8-1.8,1.6-3,1.6C367.6,79,362.5,72,363.7,67.5z M400.5,88.5c-1.3,1.3-3.3,2.7-5.1,1.7
		c-5.7-3.1-10.5-1.2-15.6,1.7c-3.7,2.1-7.9,0-7.6-4.5c-0.1-3.9,2.1-6.5,3.9-9.2c1.1-1.6,2.1-3.2,2.9-4.9c1.5-3.3,4.8-5.2,8.3-4.4
		c3.3,0.8,6,2.6,7.5,5.7c0.6,1.3,1.5,2.2,2.5,3.1c1.9,1.6,3.2,3.5,4,5.8C402,85.4,401.8,87.2,400.5,88.5z M403.3,75
		c-1.7,1.1-3.7,1.6-5.5,0.6c-1.7-1-1.6-3-1.6-4.7c-0.3-3.9,1.8-6.4,5-8.2c2.6-1.4,5.2-0.2,5.8,2.7C407.8,68.7,406.1,73.2,403.3,75z"
		/>
</g>
<g>
	<path class="st1" d="M257.1,38.3c-3.9,0-7.8,0-11.7,0c-2,0-3.3,0.7-3.8,2.8c-2.7,10.8-5.5,21.5-8.3,32.3c-0.8,3.1-1.6,6.2-2.4,9.3
		c-1.5-3.2-2.6-6.5-3.5-9.7c-3.3-10.7-6.4-21.3-10-31.9c-0.6-1.8-1.6-2.5-3.4-2.4c-3,0.1-6.1,0.1-9.2,0c-2.1-0.1-3,0.7-3.7,2.8
		c-4.4,12.7-7.7,25.8-11.8,38.7c-0.3,0.8-0.1,1.9-1.3,2.3c-1-0.6-0.8-1.8-1.1-2.7c-3.3-12.8-6.6-25.6-9.8-38.4
		c-0.6-2.4-1.8-3.3-4.3-3.2c-3.8,0.1-7.6,0-11.4,0c-3.1,0-3.7,0.8-2.8,3.7c2.1,6.6,4.2,13.1,6.2,19.7c3.4,10.8,6.7,21.6,10.2,32.3
		c0.9,2.7,1.1,5.9,3.7,7.8c5.7,0.6,11.4,0.7,17.2-0.1c1.5-0.3,1.5-1.7,1.9-2.8c2.8-9.5,9.6-37,11.6-37.2c1.7-0.2,5.3,16.3,5.4,16.8
		c-0.1,0.1,4,14.2,5.8,20.3c0.4,1.3,0.7,3,2.6,3.1c5.4,0.2,10.7,0.6,16.1-0.2c1.4-0.7,1.9-2,2.3-3.3c0.8-2.7,1.7-5.4,2.6-8.2
		c5.1-16.1,10.2-32.3,15.3-48.4C260.6,38.8,260.2,38.3,257.1,38.3z"/>
	<path class="st1" d="M82.2,24.2c-3.7-3.2-8.3-5.8-13.1-6.8C66.1,16.8,63,17,60,17c-3.1,0-6.2,0-9.3,0c-7,0-14.1,0-21.1,0
		c-0.7,0-1.1,0.4-1.1,1.1c0,10.6,0,21.2,0,31.9s-0.3,49.2-0.1,50.3c0.3,1.5,1.6,1.3,2.8,1.3c2.1,0,4.2,0,6.4,0c1.1,0,5.4,0.2,6.4,0
		c1.3-0.2,1.5-1.1,1.5-2.2c0-1.6-0.1-14-0.1-15c0-1.4,0.2-7.7,0-9.5c0.6-1.5,0.6-1.6,2-1.6c3.3,0,6.6,0,10,0
		c3.4-0.1,6.8-0.3,10.2-0.5c1.8-0.1,3.6-0.4,5.4-1c12-4.4,18.5-14.1,18.3-27.5c0-3-0.5-6.1-1.5-9C88.2,31,85.6,27.2,82.2,24.2z
		 M48.2,59c1.3,0.1,2.6,0.2,3.9,0.2C50.8,59.2,49.5,59.1,48.2,59z M64.1,58.2c-0.8,0.2-1.6,0.4-2.4,0.6c0,0,0,0,0,0
		c-5.1,0-10.3,0.1-15.4,0.1c-1-0.5-0.7-1.4-0.7-2.2c0-7.5,0-15-0.1-22.4c0-2,0.6-2.6,2.5-2.4c5.6,0.3,11.3-0.5,16.8,0.9
		c6,1.6,8.9,6.1,8.8,13.3C73.4,51.8,69.4,56.9,64.1,58.2z"/>
	<path class="st1" d="M153.5,58.9c-0.4-10.6-6.8-17-16.3-20.2c-4.6-1.6-9.6-2-14.6-1.7c-6.1,0.4-12,1.5-17,5.5
		c-2.9,2.4-5.9,4.7-7.3,8.4c-0.6,1.7-0.7,2.8,1.2,3.4c3.3,1.1,6.6,2.3,9.9,3.5c1.1,0.4,1.9,0.3,2.5-0.9c3.8-7.1,11.3-7.5,17.6-6
		c5.2,1.3,7.7,5.1,7.8,10.4c0,1.9-0.5,2.7-2.5,2.3c-5.8-0.5-11.7-1.1-17.5,0c0,0-0.1,0-0.1,0c-0.7,0.1-1.4,0.2-2.1,0.3
		c-0.3,0-0.5,0-0.8,0.1c-10.8,1.5-17.7,7.6-18.9,17.3c-1.3,10.7,5.6,18.5,14.7,20.6c5.8,1.8,11.6,1.6,17.4-0.5
		c0.2-0.1,0.3-0.1,0.5-0.2c0.3-0.1,0.6-0.3,1-0.4c0.2-0.1,0.4-0.1,0.6-0.2c0.2-0.1,0.4-0.3,0.6-0.4c0,0-0.1,0-0.1,0
		c0.4-0.2,0.7-0.3,1.1-0.5c-0.1,0-0.2,0-0.3,0c0.1,0,0.2,0,0.3,0c0,0,0.2-0.1,0.2-0.1c0.5-0.3,1.1-0.6,1.6-1c0,0,0.2-0.1,0.2-0.1
		c0.5-0.3,1-0.7,1.5-1c0,0,0.1-0.1,0.1-0.1c0.2-0.2,0.3-0.3,0.5-0.5c0,0,0.1,0,0.1,0c0.2-0.2,0.3-0.3,0.5-0.5c0,0,0.1-0.1,0.1-0.1
		c0.1-0.1,0.3-0.3,0.4-0.4c0,0,0.1-0.1,0.1-0.1c1.7-0.8,1.2,0.7,1.4,1.4c0.4,1.3-0.2,2.8,1.1,3.8c0.1,0.2,0.2,0.2,0.4,0.2
		c4.5,1,9,0.9,13.6,0c1-0.3,0.9-1.1,0.9-1.8C153.8,86.1,154,72.5,153.5,58.9z M116.1,89.7c-5.6-2.1-6.2-9.1-1.4-12.8
		c3.4-2.6,7.5-2.7,11.6-3.1c1.4-0.1,2.8,0,4.2,0c0,0,0,0,0,0c1.2,0,2.4,0,3.6,0c3.4,0,3.7,0.2,3.3,3.6
		C136.1,89.3,126.3,93.5,116.1,89.7z"/>
</g>
</svg>
